<?xml version="1.0" encoding="UTF-8"?>
<!DOCTYPE svg PUBLIC "-//W3C//DTD SVG 1.1//EN" "http://www.w3.org/Graphics/SVG/1.1/DTD/svg11.dtd">
<svg xmlns="http://www.w3.org/2000/svg" version="1.1" width="222px" height="72px" style="shape-rendering:geometricPrecision; text-rendering:geometricPrecision; image-rendering:optimizeQuality; fill-rule:evenodd; clip-rule:evenodd" xmlns:xlink="http://www.w3.org/1999/xlink">
<g><path style="opacity:0.95" fill="#f7f9f9" d="M 216.5,12.5 C 214.775,16.4467 213.108,20.6134 211.5,25C 211.836,26.0299 212.503,26.5299 213.5,26.5C 214.906,26.9731 215.573,27.9731 215.5,29.5C 213.835,40.3542 207.502,44.1875 196.5,41C 195.054,39.702 193.721,39.5354 192.5,40.5C 191.326,39.4863 190.66,38.153 190.5,36.5C 190.5,35.5 190.5,34.5 190.5,33.5C 177.818,33.2922 165.151,33.6255 152.5,34.5C 148.995,34.5988 145.662,33.9322 142.5,32.5C 135.682,33.0946 129.015,33.7613 122.5,34.5C 124.297,35.7298 126.297,36.3964 128.5,36.5C 134.597,38.2174 140.93,39.3841 147.5,40C 161.814,41.0438 176.148,41.7105 190.5,42C 192.426,42.4224 193.426,43.5891 193.5,45.5C 190.153,50.8511 185.153,53.6845 178.5,54C 164.912,56.5734 151.246,58.5734 137.5,60C 129.202,64.1352 120.369,65.9685 111,65.5C 105.127,65.4426 99.2933,64.9426 93.5,64C 79.6531,60.0383 65.6531,56.705 51.5,54C 35.8664,52.6587 20.1997,52.1587 4.5,52.5C 3.18344,49.7699 3.18344,46.9365 4.5,44C 9.71113,42.2413 15.0445,40.908 20.5,40C 16.7644,31.4508 19.431,25.4508 28.5,22C 23.7523,12.6616 26.0857,5.66162 35.5,1C 44.6584,-0.813613 50.4918,2.68639 53,11.5C 55.1667,10 57.3333,8.5 59.5,7C 62.2305,6.27161 64.8971,6.43828 67.5,7.5C 72.7331,1.22279 79.3998,-1.11054 87.5,0.5C 91.1667,0.666667 94.8333,0.833333 98.5,1C 100.359,2.55779 101.859,4.39113 103,6.5C 103.792,4.41267 104.959,2.57934 106.5,1C 118.167,0.333333 129.833,0.333333 141.5,1C 143.747,2.995 144.747,5.495 144.5,8.5C 148.514,8.33449 152.514,8.50115 156.5,9C 157.416,9.37424 158.25,9.87424 159,10.5C 160.584,9.13865 162.418,8.47199 164.5,8.5C 164.083,3.08411 166.583,0.417439 172,0.5C 176.925,0.989052 180.759,3.32239 183.5,7.5C 185.828,8.72405 188.161,8.72405 190.5,7.5C 192.811,8.21352 194.978,9.21352 197,10.5C 197.75,9.87424 198.584,9.37424 199.5,9C 204.167,8.33333 208.833,8.33333 213.5,9C 214.71,10.0391 215.71,11.2058 216.5,12.5 Z M 90.5,17.5 C 87.6463,21.3549 84.313,22.0216 80.5,19.5C 80.33,18.1779 80.6634,17.0113 81.5,16C 84.6812,15.4029 87.6812,15.9029 90.5,17.5 Z M 66.5,27.5 C 67.0431,27.56 67.3764,27.8933 67.5,28.5C 66.635,29.5827 65.635,29.7494 64.5,29C 65.4158,28.7216 66.0825,28.2216 66.5,27.5 Z M 120.5,30.5 C 120.229,32.3797 120.896,33.713 122.5,34.5C 122.44,35.0431 122.107,35.3764 121.5,35.5C 117.329,34.3318 113.329,32.9985 109.5,31.5C 112.962,30.5184 116.629,30.185 120.5,30.5 Z"/></g>
<g><path style="opacity:1" fill="#2f3474" d="M 129.5,18.5 C 128.609,17.8902 127.609,17.5569 126.5,17.5C 126.5,14.8333 126.5,12.1667 126.5,9.5C 123.833,9.5 121.167,9.5 118.5,9.5C 118.5,8.5 118.5,7.5 118.5,6.5C 125.167,6.5 131.833,6.5 138.5,6.5C 138.5,7.5 138.5,8.5 138.5,9.5C 135.5,9.5 132.5,9.5 129.5,9.5C 129.5,12.5 129.5,15.5 129.5,18.5 Z"/></g>
<g><path style="opacity:1" fill="#f79527" d="M 36.5,6.5 C 44.775,5.70638 47.9417,9.37305 46,17.5C 41.7147,22.8208 37.3814,22.8208 33,17.5C 31.6624,12.9597 32.8291,9.29302 36.5,6.5 Z"/></g>
<g><path style="opacity:1" fill="#262d6f" d="M 171.5,6.5 C 173.402,9.33732 174.069,12.6707 173.5,16.5C 172.883,16.3893 172.383,16.056 172,15.5C 171.502,12.5184 171.335,9.51838 171.5,6.5 Z"/></g>
<g><path style="opacity:1" fill="#383e7c" d="M 100.5,18.5 C 100.5,19.8333 99.8333,20.5 98.5,20.5C 96.6971,16.8941 94.8637,13.2274 93,9.5C 91.9188,11.7671 90.4188,11.9338 88.5,10C 82.1772,8.02482 77.5105,9.85815 74.5,15.5C 73.609,14.8902 72.609,14.5569 71.5,14.5C 74.8669,7.15523 80.5336,4.65523 88.5,7C 89.7659,7.30945 90.9326,7.80945 92,8.5C 92.9525,6.40783 94.2859,6.0745 96,7.5C 97.7994,11.07 99.2994,14.7366 100.5,18.5 Z"/></g>
<g><path style="opacity:1" fill="#2c2c6e" d="M 176.5,8.5 C 177.5,8.5 178.5,8.5 179.5,8.5C 179.5,9.5 179.5,10.5 179.5,11.5C 178.5,11.5 177.5,11.5 176.5,11.5C 176.5,10.5 176.5,9.5 176.5,8.5 Z"/></g>
<g><path style="opacity:0.72" fill="#cdcdcd" d="M 90.5,17.5 C 87.6812,15.9029 84.6812,15.4029 81.5,16C 80.6634,17.0113 80.33,18.1779 80.5,19.5C 77.9832,17.9229 77.9832,16.0896 80.5,14C 83.594,13.3482 86.594,13.6815 89.5,15C 90.2524,15.6708 90.5858,16.5041 90.5,17.5 Z"/></g>
<g><path style="opacity:0.618" fill="#cfcfcf" d="M 216.5,12.5 C 216.959,17.5199 215.959,22.1866 213.5,26.5C 212.503,26.5299 211.836,26.0299 211.5,25C 213.108,20.6134 214.775,16.4467 216.5,12.5 Z"/></g>
<g><path style="opacity:1" fill="#40b64d" d="M 61.5,12.5 C 62.4959,12.4142 63.3292,12.7476 64,13.5C 64.7249,20.5459 61.8916,25.7126 55.5,29C 49.2878,32.273 42.9544,35.273 36.5,38C 33.1667,38.6667 29.8333,38.6667 26.5,38C 23.646,34.4 24.3127,31.4 28.5,29C 36.5,25.6667 44.5,22.3333 52.5,19C 55.9614,17.3572 58.9614,15.1905 61.5,12.5 Z"/></g>
<g><path style="opacity:1" fill="#355692" d="M 135.5,14.5 C 137.124,14.3601 138.29,15.0267 139,16.5C 139.956,15.1059 141.289,14.4393 143,14.5C 145.626,15.5394 148.293,15.5394 151,14.5C 153.655,14.124 155.488,15.124 156.5,17.5C 156.5,18.5 156.5,19.5 156.5,20.5C 155.222,20.2178 154.222,19.5511 153.5,18.5C 151.062,17.1137 148.729,17.447 146.5,19.5C 143.189,16.6189 140.523,16.9522 138.5,20.5C 137.849,21.0906 137.182,21.7573 136.5,22.5C 135.52,19.9135 135.187,17.2469 135.5,14.5 Z"/></g>
<g><path style="opacity:1" fill="#2f528e" d="M 210.5,16.5 C 208.379,16.3253 206.379,16.6586 204.5,17.5C 202.62,17.2291 201.287,17.8958 200.5,19.5C 199.778,20.5511 198.778,21.2178 197.5,21.5C 197.14,15.9833 199.807,13.6499 205.5,14.5C 207.64,14.5561 209.306,15.2227 210.5,16.5 Z"/></g>
<g><path style="opacity:1" fill="#2d4281" d="M 107.5,19.5 C 106.5,19.1667 105.833,18.5 105.5,17.5C 106.267,13.9627 107.6,10.6293 109.5,7.5C 110.325,6.61432 111.325,6.28099 112.5,6.5C 111.115,10.938 109.448,15.2713 107.5,19.5 Z"/></g>
<g><path style="opacity:1" fill="#f4f8fb" d="M 170.5,17.5 C 170.5,20.8333 170.5,24.1667 170.5,27.5C 164.666,28.6627 162,26.3294 162.5,20.5C 164.391,17.8283 167.058,16.8283 170.5,17.5 Z"/></g>
<g><path style="opacity:1" fill="#32528f" d="M 171.5,6.5 C 171.335,9.51838 171.502,12.5184 172,15.5C 172.383,16.056 172.883,16.3893 173.5,16.5C 173.5,18.5 173.5,20.5 173.5,22.5C 171.972,21.1979 170.972,19.5313 170.5,17.5C 167.058,16.8283 164.391,17.8283 162.5,20.5C 161.167,20.5 160.5,19.8333 160.5,18.5C 162.782,14.9088 166.116,13.5755 170.5,14.5C 170.194,11.6146 170.527,8.9479 171.5,6.5 Z"/></g>
<g><path style="opacity:1" fill="#f7f9fb" d="M 204.5,17.5 C 205.301,19.0418 205.634,20.7085 205.5,22.5C 203.833,22.5 202.167,22.5 200.5,22.5C 200.5,21.5 200.5,20.5 200.5,19.5C 201.287,17.8958 202.62,17.2291 204.5,17.5 Z"/></g>
<g><path style="opacity:1" fill="#23599b" d="M 182.5,14.5 C 185.758,15.0678 189.091,15.2345 192.5,15C 193.381,15.7083 194.047,16.5416 194.5,17.5C 195.089,21.9707 194.423,25.9707 192.5,29.5C 192.665,25.8183 192.499,22.1516 192,18.5C 189.837,17.232 187.67,17.232 185.5,18.5C 184.834,22.0208 184.167,25.6875 183.5,29.5C 182.506,24.544 182.173,19.544 182.5,14.5 Z"/></g>
<g><path style="opacity:1" fill="#0761a9" d="M 109.5,21.5 C 120.167,22.1667 120.167,22.8333 109.5,23.5C 109.5,22.8333 109.5,22.1667 109.5,21.5 Z"/></g>
<g><path style="opacity:1" fill="#2168a9" d="M 176.5,14.5 C 177.5,14.5 178.5,14.5 179.5,14.5C 179.5,19.8333 179.5,25.1667 179.5,30.5C 178.5,30.5 177.5,30.5 176.5,30.5C 176.5,25.1667 176.5,19.8333 176.5,14.5 Z"/></g>
<g><path style="opacity:1" fill="#5594c6" d="M 109.5,21.5 C 112.287,20.5233 115.287,20.19 118.5,20.5C 118.5,21.8333 118.5,23.1667 118.5,24.5C 115.287,24.81 112.287,24.4767 109.5,23.5C 120.167,22.8333 120.167,22.1667 109.5,21.5 Z"/></g>
<g><path style="opacity:1" fill="#2572b4" d="M 71.5,14.5 C 72.609,14.5569 73.609,14.8902 74.5,15.5C 75.6224,27.3125 81.4557,30.3125 92,24.5C 93.033,27.2175 92.1997,29.0508 89.5,30C 78.7092,32.782 72.3759,28.782 70.5,18C 70.5143,16.6153 70.8476,15.4486 71.5,14.5 Z"/></g>
<g><path style="opacity:1" fill="#2270b2" d="M 105.5,17.5 C 105.833,18.5 106.5,19.1667 107.5,19.5C 106.013,23.1454 104.513,26.812 103,30.5C 101.017,27.3862 99.5174,24.0529 98.5,20.5C 99.8333,20.5 100.5,19.8333 100.5,18.5C 101.232,19.8083 102.066,21.1416 103,22.5C 103.374,20.5087 104.207,18.842 105.5,17.5 Z"/></g>
<g><path style="opacity:1" fill="#0e69af" d="M 126.5,17.5 C 127.609,17.5569 128.609,17.8902 129.5,18.5C 129.5,22.5 129.5,26.5 129.5,30.5C 128.5,30.5 127.5,30.5 126.5,30.5C 126.5,26.1667 126.5,21.8333 126.5,17.5 Z"/></g>
<g><path style="opacity:1" fill="#4989c4" d="M 135.5,14.5 C 135.187,17.2469 135.52,19.9135 136.5,22.5C 137.182,21.7573 137.849,21.0906 138.5,20.5C 138.5,23.8333 138.5,27.1667 138.5,30.5C 137.167,30.5 135.833,30.5 134.5,30.5C 134.179,24.9738 134.512,19.6405 135.5,14.5 Z"/></g>
<g><path style="opacity:1" fill="#2377ba" d="M 153.5,18.5 C 154.222,19.5511 155.222,20.2178 156.5,20.5C 156.091,23.8555 156.758,26.8555 158.5,29.5C 155.784,29.7989 152.95,30.1323 150,30.5C 146.261,30.0951 144.927,28.0951 146,24.5C 147.8,22.683 149.966,21.5163 152.5,21C 153.252,20.3292 153.586,19.4959 153.5,18.5 Z"/></g>
<g><path style="opacity:1" fill="#e6f0f7" d="M 152.5,22.5 C 153.613,23.9464 153.78,25.6131 153,27.5C 150.323,29.0662 148.99,28.3995 149,25.5C 150.145,24.3636 151.312,23.3636 152.5,22.5 Z"/></g>
<g><path style="opacity:1" fill="#a4c9e3" d="M 156.5,17.5 C 156.984,21.2235 157.984,24.8902 159.5,28.5C 159.376,29.1067 159.043,29.44 158.5,29.5C 156.758,26.8555 156.091,23.8555 156.5,20.5C 156.5,19.5 156.5,18.5 156.5,17.5 Z"/></g>
<g><path style="opacity:1" fill="#1b76b9" d="M 170.5,17.5 C 170.972,19.5313 171.972,21.1979 173.5,22.5C 173.5,25.1667 173.5,27.8333 173.5,30.5C 163.095,32.4202 158.762,28.4202 160.5,18.5C 160.5,19.8333 161.167,20.5 162.5,20.5C 162,26.3294 164.666,28.6627 170.5,27.5C 170.5,24.1667 170.5,20.8333 170.5,17.5 Z"/></g>
<g><path style="opacity:1" fill="#5d9ccb" d="M 182.5,14.5 C 182.173,19.544 182.506,24.544 183.5,29.5C 184.167,25.6875 184.834,22.0208 185.5,18.5C 185.5,22.5 185.5,26.5 185.5,30.5C 184.167,30.5 182.833,30.5 181.5,30.5C 181.179,24.9738 181.512,19.6405 182.5,14.5 Z"/></g>
<g><path style="opacity:1" fill="#3988c0" d="M 194.5,17.5 C 195.485,21.6344 195.818,25.9677 195.5,30.5C 194.209,30.7373 193.209,30.404 192.5,29.5C 194.423,25.9707 195.089,21.9707 194.5,17.5 Z"/></g>
<g><path style="opacity:0.671" fill="#d2d2d2" d="M 120.5,30.5 C 116.629,30.185 112.962,30.5184 109.5,31.5C 107.348,30.9232 107.015,29.7565 108.5,28C 112.871,27.1725 117.205,27.3391 121.5,28.5C 121.137,29.1835 120.804,29.8501 120.5,30.5 Z"/></g>
<g><path style="opacity:1" fill="#2879bb" d="M 210.5,16.5 C 209.001,18.4898 208.168,20.8232 208,23.5C 206.103,25.0163 203.936,25.683 201.5,25.5C 201.5,26.5 201.5,27.5 201.5,28.5C 204.862,28.0695 207.695,29.0695 210,31.5C 210.473,36.3619 208.14,38.6953 203,38.5C 197.86,38.6953 195.527,36.3619 196,31.5C 199.15,28.316 199.65,24.9826 197.5,21.5C 198.778,21.2178 199.778,20.5511 200.5,19.5C 200.5,20.5 200.5,21.5 200.5,22.5C 202.167,22.5 203.833,22.5 205.5,22.5C 205.634,20.7085 205.301,19.0418 204.5,17.5C 206.379,16.6586 208.379,16.3253 210.5,16.5 Z"/></g>
<g><path style="opacity:1" fill="#edf5fa" d="M 199.5,31.5 C 201.857,31.3367 204.19,31.5034 206.5,32C 207.833,33 207.833,34 206.5,35C 204.167,35.6667 201.833,35.6667 199.5,35C 198.316,33.8545 198.316,32.6879 199.5,31.5 Z"/></g>
<g><path style="opacity:0.652" fill="#cfcfcf" d="M 215.5,29.5 C 217.852,35.3729 216.186,39.8729 210.5,43C 203.879,45.546 197.879,44.7127 192.5,40.5C 193.721,39.5354 195.054,39.702 196.5,41C 207.502,44.1875 213.835,40.3542 215.5,29.5 Z"/></g>
<g><path style="opacity:0.684" fill="#d0d0d0" d="M 190.5,36.5 C 178.159,36.296 165.659,36.296 153,36.5C 149.431,36.7139 146.098,36.0473 143,34.5C 142.25,35.1258 141.416,35.6258 140.5,36C 136.514,36.4988 132.514,36.6655 128.5,36.5C 126.297,36.3964 124.297,35.7298 122.5,34.5C 129.015,33.7613 135.682,33.0946 142.5,32.5C 145.662,33.9322 148.995,34.5988 152.5,34.5C 165.151,33.6255 177.818,33.2922 190.5,33.5C 190.5,34.5 190.5,35.5 190.5,36.5 Z"/></g>
<g><path style="opacity:1" fill="#8fc745" d="M 61.5,35.5 C 73.1714,35.3335 84.8381,35.5001 96.5,36C 113.949,40.631 131.615,44.2977 149.5,47C 161.5,47.3333 173.5,47.6667 185.5,48C 166.207,53.5181 146.541,55.8514 126.5,55C 107.471,51.1594 88.4705,47.1594 69.5,43C 57.5,42.6667 45.5,42.3333 33.5,42C 42.6827,38.6008 52.0161,36.4342 61.5,35.5 Z"/></g>
<g><path style="opacity:1" fill="#1f77bc" d="M 38.5,48.5 C 33.1667,47.8333 27.8333,47.1667 22.5,46.5C 42.2025,43.5341 61.8692,44.0341 81.5,48C 98.3382,53.8759 115.672,57.2092 133.5,58C 132.051,59.117 130.384,59.7837 128.5,60C 107.844,63.3353 87.8438,61.002 68.5,53C 58.5984,50.7859 48.5984,49.2859 38.5,48.5 Z"/></g>
<g><path style="opacity:0.695" fill="#cdcdcd" d="M 193.5,45.5 C 194.364,49.5858 192.697,52.4192 188.5,54C 172.455,58.4349 156.122,61.1016 139.5,62C 131.123,66.5756 122.123,68.4089 112.5,67.5C 106.12,67.5113 99.787,67.0113 93.5,66C 79.2772,62.1943 64.9438,58.861 50.5,56C 36.1734,54.4102 21.8401,54.0768 7.5,55C 6.05773,54.6232 5.05773,53.7899 4.5,52.5C 20.1997,52.1587 35.8664,52.6587 51.5,54C 65.6531,56.705 79.6531,60.0383 93.5,64C 99.2933,64.9426 105.127,65.4426 111,65.5C 120.369,65.9685 129.202,64.1352 137.5,60C 151.246,58.5734 164.912,56.5734 178.5,54C 185.153,53.6845 190.153,50.8511 193.5,45.5 Z"/></g>
<g><path style="opacity:1" fill="#4392c9" d="M 22.5,46.5 C 27.8333,47.1667 33.1667,47.8333 38.5,48.5C 30.16,48.6664 21.8267,48.4997 13.5,48C 16.4781,47.304 19.4781,46.804 22.5,46.5 Z"/></g>
</svg>
